<?xml version="1.0" encoding="UTF-8"?>
<svg id="Layer_2" xmlns="http://www.w3.org/2000/svg" viewBox="0 0 135.77 105.71">
  <defs>
    <style>
      .cls-1 {
        fill: #f15923;
      }

      .cls-2 {
        fill: #64bf7d;
      }

      .cls-3 {
        fill: #010101;
      }
    </style>
  </defs>
  <g id="Layer_1-2" data-name="Layer_1">
    <g>
      <path class="cls-1" d="M25.19,48.88c2.4,7.53,8.84,13.48,18.15,16.75,16.06,5.65,36.88,2.38,53.03-8.34,10.66-7.07,16.45-15.85,16.3-24.74-.12-7.2-4.28-13.87-11.42-18.28-11.78-7.28-31.51-8.19-47.97-2.21-17.3,6.29-33.02,21.33-28.09,36.82ZM73.52,56.69l-.61.33-2.53-4.76,2.56-1.36.27.51-1.95,1.04.84,1.58,1.8-.96.27.51-1.8.96,1.15,2.15ZM73.73,50.96c-.12-.22-.04-.48.18-.6.23-.12.47-.03.59.19.12.21.05.46-.19.59-.22.12-.46.03-.58-.18ZM76.14,55.3l-1.82-3.42.62-.33,1.82,3.42-.62.33ZM80.08,53.2l-1.05-1.97c-.29-.55-.74-.9-1.33-.59-.41.22-.57.68-.5,1.08.01.09.06.21.11.31l1.09,2.05-.62.33-1.33-2.49c-.19-.35-.35-.64-.52-.91l.55-.29.34.55h.01c0-.42.22-.95.79-1.25.47-.25,1.36-.36,1.98.81l1.08,2.04-.62.33ZM84,51.12l-1.05-1.97c-.29-.55-.74-.9-1.33-.59-.41.22-.57.68-.5,1.08.01.09.06.21.11.31l1.09,2.05-.62.33-1.33-2.49c-.19-.35-.35-.64-.52-.91l.55-.29.34.55h.01c0-.42.22-.95.79-1.25.47-.25,1.36-.36,1.98.81l1.08,2.04-.62.33ZM87.58,44.83l1.82,1.62c.2.18.42.41.59.58h.01c-.04-.25-.11-.54-.16-.84l-.39-2.37.66-.35.36,2.93c.18,1.41.19,2.17-.03,2.76-.16.43-.41.7-.55.81l-.43-.44c.13-.13.28-.34.38-.59.1-.22.18-.58.15-.97,0-.08-.01-.14-.03-.17-.02-.04-.06-.08-.13-.14l-2.94-2.48.68-.36ZM87.4,46.89c.07.13.11.23.13.3l-2.4,1.28c.46.83,1.18.89,1.8.56.44-.24.67-.46.85-.68l.34.39c-.17.22-.48.53-1.02.82-1.05.56-2.05.2-2.6-.83-.55-1.03-.37-2.17.62-2.7,1.12-.59,1.93.23,2.27.86ZM62.95,24.17c.29-2.2,1.86-3.92,4.51-5.01,2.6-1.07,5.41-1.2,8.21-.37,2.32.68,4.59,2.03,6.41,3.84,1.89,1.88,3.05,4,3.22,5.98.21,2.53-1.16,4.65-4.02,6.08-2.93,1.46-6.28,1.61-9.56.45-2.62-.93-5-2.67-6.67-4.84-1.61-2.08-2.33-4.25-2.09-6.12ZM41.45,34.87l6.88-5.74c.75-.62,2.02-1.05,2.86-.97.3.03.52.13.62.27l9.95,13.93c.4.56-.26,1.51-1.48,2.13-1.23.62-2.55.66-2.93.08l-8.51-12.94-4.22,3.61c-.82.71-2.22,1.19-3.1,1.09-.88-.11-.91-.77-.07-1.46Z"/>
      <path class="cls-2" d="M101.82,12.31l8.28-3.82c-8.03-3.78-17.89-5.89-28.29-6.25l-1.78,4.04c8.24.5,15.9,2.53,21.79,6.03Z"/>
      <path class="cls-1" d="M79.64,32.84c4.29-2.09,3.05-6.2.14-9.18-2.74-2.81-7.09-4.77-11.07-3.1-4.1,1.72-3.6,5.46-1.09,8.57,2.67,3.31,7.58,5.87,12.02,3.71Z"/>
      <path class="cls-2" d="M28.46,92.93c3.19,1.34,6.67,2.43,10.39,3.26-.08-.23-.08-.49.02-.73l11.43-25.95c-2.62-.47-5.17-1.12-7.61-1.98-9.48-3.33-16.18-9.34-19.01-16.97L2.21,60.45c1.52,14.27,11.04,26.08,26.25,32.48Z"/>
      <path class="cls-1" d="M84.9,48.02l1.81-.96c-.2-.4-.7-.92-1.4-.55-.63.33-.6,1.06-.42,1.52Z"/>
      <path class="cls-2" d="M30.5,24.5c5.37-5.86,12.81-10.69,20.69-13.78l-3.28-3.51c-10.28,3.55-20.37,9.27-28.48,16.45l11.06.85Z"/>
      <path class="cls-1" d="M112.99,76.77l-16.23-17.35c-11.07,7.14-24.19,10.94-36.57,10.94-2.66,0-5.29-.19-7.86-.54l-11.64,26.44c-.05.1-.11.19-.18.27,20.79,4.08,48.37-.37,72.48-19.76Z"/>
      <path class="cls-1" d="M53.24,9.97c7.9-2.77,16.49-4.01,24.65-3.78l1.76-3.99c-9.87-.12-20.11,1.31-29.62,4.33l3.22,3.44Z"/>
      <path class="cls-1" d="M115.1,77.66c-19.38,15.92-41.1,22.26-59.95,22.26-10.29,0-19.73-1.89-27.47-5.14-10.91-4.59-19.01-11.87-23.55-20.83,2.64,10.62,10.42,19.16,22.5,24.44,21.85,9.56,60.09,7.56,92.41-19.42,8.46-7.06,12.24-16.12,13.79-24.24-3.17,8.07-9.15,15.89-17.72,22.93Z"/>
      <path class="cls-2" d="M133.28,38.24c-.14-1.32-.37-2.62-.67-3.91l-17.95-1.37c-.03,9.16-5.76,18.11-16.22,25.34l16.1,17.2c13.4-11.27,20.06-24.47,18.74-37.26Z"/>
      <path class="cls-1" d="M23.05,48.64c-2.17-7.91.48-15.64,5.83-22.25l-11.46-.88C7.8,34.73,1.51,46.11,2.05,58.32l21-9.69Z"/>
      <path class="cls-1" d="M103.83,13.58c6.31,4.42,10.14,10.61,10.76,17.36l17.47,1.34c-2.82-9.21-9.84-17.39-19.65-22.65l-8.58,3.96Z"/>
      <path class="cls-3" d="M71.71,35.13c3.28,1.17,6.63,1.01,9.56-.45,2.86-1.42,4.24-3.55,4.02-6.08-.17-1.98-1.33-4.1-3.22-5.98-1.82-1.81-4.09-3.16-6.41-3.84-2.79-.82-5.6-.7-8.21.37-2.65,1.09-4.23,2.81-4.51,5.01-.24,1.87.48,4.04,2.09,6.12,1.67,2.17,4.05,3.91,6.67,4.84ZM68.71,20.56c3.98-1.67,8.33.29,11.07,3.1,2.91,2.98,4.15,7.1-.14,9.18-4.44,2.16-9.35-.4-12.02-3.71-2.51-3.11-3.01-6.85,1.09-8.57Z"/>
      <path class="cls-3" d="M41.52,36.33c.89.11,2.28-.38,3.1-1.09l4.22-3.61,8.51,12.94c.38.58,1.7.54,2.93-.08,1.22-.62,1.88-1.57,1.48-2.13l-9.95-13.93c-.11-.15-.32-.24-.62-.27-.84-.09-2.11.34-2.86.97l-6.88,5.74c-.84.7-.81,1.36.07,1.46Z"/>
      <polygon points="73.9 53.07 72.1 54.03 71.26 52.45 73.21 51.41 72.94 50.9 70.37 52.26 72.9 57.02 73.52 56.69 72.37 54.54 74.17 53.58 73.9 53.07"/>
      <path d="M74.5,50.55c-.12-.22-.36-.31-.59-.19-.23.12-.3.38-.18.6.11.21.36.3.58.18.25-.13.31-.38.19-.59Z"/>
      <rect x="75.19" y="51.49" width=".7" height="3.87" transform="translate(-16.24 41.73) rotate(-28.01)"/>
      <path d="M77.63,50.02c-.56.3-.79.83-.79,1.24h-.01s-.34-.54-.34-.54l-.55.29c.17.27.33.56.52.91l1.33,2.49.62-.33-1.09-2.05c-.06-.11-.1-.22-.11-.31-.08-.4.09-.86.5-1.08.59-.31,1.03.04,1.33.59l1.05,1.97.62-.33-1.08-2.04c-.62-1.17-1.51-1.06-1.98-.81Z"/>
      <path d="M81.55,47.93c-.56.3-.79.83-.79,1.24h-.01s-.34-.54-.34-.54l-.55.29c.17.27.33.56.52.91l1.33,2.49.62-.33-1.09-2.05c-.06-.11-.1-.22-.11-.31-.08-.4.09-.86.5-1.08.59-.31,1.03.04,1.33.59l1.05,1.97.62-.33-1.08-2.04c-.62-1.17-1.51-1.06-1.98-.81Z"/>
      <path d="M84.51,48.73c.55,1.03,1.54,1.39,2.6.83.54-.29.86-.6,1.02-.82l-.34-.39c-.18.22-.41.44-.85.68-.62.33-1.34.27-1.8-.56l2.4-1.28c-.03-.07-.07-.17-.13-.3-.33-.63-1.15-1.45-2.27-.86-1,.53-1.17,1.67-.62,2.7ZM86.71,47.06l-1.81.96c-.18-.46-.21-1.18.42-1.52.7-.37,1.19.15,1.4.55Z"/>
      <path d="M89.97,47.81s.02.1.03.17c.03.39-.06.75-.15.97-.1.25-.25.46-.38.59l.43.44c.14-.11.39-.38.55-.81.23-.59.21-1.35.03-2.76l-.36-2.93-.66.35.39,2.37c.05.29.12.59.16.83h-.01c-.17-.17-.39-.39-.59-.57l-1.82-1.62-.68.36,2.94,2.48c.07.06.11.1.13.14Z"/>
      <path class="cls-3" d="M134.39,33.17s0-.01,0-.02c-.01-.05-.02-.09-.04-.13-2.73-10.39-10.45-19.65-21.44-25.4C104.16,3.04,93.27.54,81.77.15c-.04-.02-.06-.06-.1-.07-.3-.13-.62-.09-.88.06-10.88-.25-22.26,1.38-32.91,4.96,0,0-.02,0-.02,0,0,0,0,0,0,0-11.32,3.82-22.47,10.25-31.16,18.38-.41.06-.73.36-.81.77C5.58,34.2-1.02,46.58.13,59.88c0,0,0,0,0,0,0,.02,0,.03,0,.05.21,2.38.65,4.69,1.27,6.94-.16.19-.26.43-.24.7.73,14.42,9.49,26.01,24.67,32.65,8.31,3.63,18.04,5.49,28.36,5.49,5.34,0,10.84-.5,16.38-1.5,17.83-3.23,35.04-11.42,49.75-23.71,20.89-17.44,14.57-46.42,14.51-46.71-.06-.27-.22-.48-.43-.62ZM2.21,60.45l21.46-9.9c2.84,7.63,9.54,13.63,19.01,16.97,2.44.86,4.99,1.51,7.61,1.98l-11.43,25.95c-.11.24-.1.5-.02.73-3.72-.82-7.2-1.92-10.39-3.26-15.21-6.39-24.73-18.21-26.25-32.48ZM47.91,7.21l3.28,3.51c-7.88,3.09-15.33,7.93-20.69,13.78l-11.06-.85c8.1-7.18,18.2-12.89,28.48-16.45ZM53.29,12.06c16.46-5.98,36.18-5.07,47.97,2.21,7.15,4.42,11.31,11.08,11.42,18.28.14,8.88-5.65,17.67-16.3,24.74-16.15,10.72-36.97,13.99-53.03,8.34-9.31-3.28-15.75-9.22-18.15-16.75-4.93-15.49,10.79-30.53,28.09-36.82ZM110.1,8.49l-8.28,3.82c-5.89-3.5-13.55-5.53-21.79-6.03l1.78-4.04c10.4.36,20.26,2.47,28.29,6.25ZM40.7,96.26l11.64-26.44c2.57.36,5.19.54,7.86.54,12.38,0,25.5-3.8,36.57-10.94l16.23,17.35c-24.11,19.38-51.69,23.83-72.48,19.76.07-.08.14-.17.18-.27ZM114.54,75.5l-16.1-17.2c10.45-7.24,16.19-16.18,16.22-25.34l17.95,1.37c.3,1.29.54,2.6.67,3.91,1.32,12.79-5.34,25.99-18.74,37.26ZM132.06,32.28l-17.47-1.34c-.62-6.75-4.45-12.94-10.76-17.36l8.58-3.96c9.81,5.26,16.83,13.44,19.65,22.65ZM79.64,2.2l-1.76,3.99c-8.16-.23-16.75,1.01-24.65,3.78l-3.22-3.44c9.52-3.02,19.75-4.44,29.62-4.33ZM17.43,25.51l11.46.88c-5.35,6.61-8,14.34-5.83,22.25L2.05,58.32c-.53-12.21,5.75-23.6,15.38-32.81ZM119.03,78.97c-32.31,26.98-70.55,28.98-92.41,19.42-12.08-5.28-19.86-13.83-22.5-24.44,4.54,8.96,12.65,16.24,23.55,20.83,7.74,3.25,17.18,5.14,27.47,5.14,18.85,0,40.56-6.34,59.95-22.26,8.57-7.04,14.55-14.86,17.72-22.93-1.55,8.12-5.33,17.18-13.79,24.24Z"/>
    </g>
  </g>
</svg>