<?xml version="1.0" encoding="UTF-8"?>
<svg id="Layer_2" xmlns="http://www.w3.org/2000/svg" viewBox="0 0 135.77 105.71">
  <defs>
    <style>
      .cls-1 {
        fill: #64bf7d;
      }

      .cls-2 {
        fill: #5967b0;
      }

      .cls-3 {
        fill: #010101;
      }
    </style>
  </defs>
  <g id="Layer_1-2" data-name="Layer_1">
    <g>
      <path class="cls-2" d="M74.18,33.83c4.01-1.98,3.05-5.47.52-7.91-2.38-2.31-6.27-3.8-9.98-2.19-3.82,1.66-3.52,4.86-1.36,7.43,2.29,2.73,6.67,4.73,10.82,2.68Z"/>
      <path class="cls-2" d="M25.19,48.89c2.4,7.53,8.84,13.48,18.15,16.75,16.06,5.65,36.88,2.38,53.03-8.34,10.66-7.07,16.45-15.85,16.3-24.74-.12-7.2-4.28-13.87-11.42-18.28,0,0,0,0,0,0,0,0,0,0,0,0-6.58-4.07-15.65-6.15-25.23-6.15-7.57,0-15.47,1.3-22.73,3.94-17.3,6.29-33.02,21.33-28.09,36.82ZM73.52,56.69l-.61.33-2.53-4.76,2.56-1.36.27.51-1.95,1.04.84,1.58,1.8-.96.27.51-1.8.96,1.15,2.15ZM73.73,50.96c-.12-.22-.04-.48.18-.6.23-.12.47-.03.59.19.12.21.05.46-.19.59-.22.12-.46.03-.58-.18ZM76.14,55.3l-1.82-3.42.62-.33,1.82,3.42-.62.33ZM80.08,53.2l-1.05-1.97c-.29-.55-.74-.9-1.33-.59-.41.22-.57.68-.5,1.08.01.09.06.21.11.31l1.09,2.05-.62.33-1.33-2.49c-.19-.35-.35-.64-.52-.91l.55-.29.33.55h.01c0-.42.22-.95.79-1.25.47-.25,1.36-.36,1.98.81l1.08,2.04-.62.33ZM84,51.12l-1.05-1.97c-.29-.55-.74-.9-1.33-.59-.41.22-.57.68-.5,1.08.01.09.06.21.11.31l1.09,2.05-.62.33-1.33-2.49c-.19-.35-.35-.64-.52-.91l.55-.29.34.55h.01c0-.42.22-.95.79-1.25.47-.25,1.36-.36,1.98.81l1.08,2.04-.62.33ZM87.1,49.56c-1.05.56-2.05.2-2.6-.83-.55-1.03-.37-2.17.62-2.7,1.12-.59,1.93.23,2.27.86.07.13.11.23.13.3l-2.4,1.28c.46.83,1.18.89,1.8.56.44-.24.67-.46.85-.68l.34.39c-.17.22-.48.53-1.02.82ZM90.44,49.18c-.16.43-.41.7-.55.81l-.43-.44c.13-.13.28-.34.38-.59.1-.22.18-.58.15-.97,0-.08-.01-.14-.03-.17-.02-.04-.06-.08-.13-.14l-2.94-2.48.68-.36,1.82,1.62c.2.18.42.41.59.58h.01c-.04-.25-.11-.54-.16-.84l-.39-2.37.66-.35.36,2.93c.18,1.41.19,2.17-.03,2.76ZM81.08,15.13c2.09-.89,4.48-1.1,6.96-.62,2.06.4,4.16,1.28,5.92,2.52,1.83,1.28,3.06,2.76,3.42,4.18.47,1.8-.45,3.38-2.71,4.52-2.31,1.16-5.11,1.41-8.02.72-2.33-.55-4.55-1.69-6.24-3.17-1.63-1.43-2.52-2.96-2.55-4.32-.04-1.61,1.08-2.92,3.21-3.83ZM59.31,27.07c.36-1.91,1.86-3.45,4.34-4.51,2.42-1.03,4.99-1.26,7.51-.67,2.09.49,4.1,1.55,5.69,3.03,1.65,1.54,2.62,3.31,2.68,5.01.09,2.17-1.26,4.06-3.94,5.4-2.74,1.38-5.8,1.66-8.75.79-2.35-.69-4.45-2.08-5.89-3.88-1.38-1.72-1.95-3.56-1.65-5.18ZM41.29,34.82l6.07-5.15c.66-.56,1.8-.93,2.55-.84.27.03.47.13.56.26l9.18,12.99c.37.52-.2,1.39-1.29,1.93-1.09.55-2.27.56-2.63.02l-7.87-12.06-3.72,3.24c-.73.63-1.97,1.06-2.76.94-.79-.12-.83-.72-.09-1.35Z"/>
      <path class="cls-2" d="M85.32,46.51c-.63.33-.6,1.06-.42,1.52l1.81-.96c-.2-.4-.7-.92-1.4-.55Z"/>
      <path class="cls-1" d="M28.46,92.93c3.02,1.27,6.31,2.32,9.81,3.12.01-.06.01-.11.04-.17l11.65-26.45c-2.5-.46-4.93-1.09-7.27-1.91-9.48-3.34-16.18-9.34-19.01-16.97L2.21,60.45c1.52,14.27,11.04,26.08,26.25,32.48Z"/>
      <path class="cls-1" d="M30.5,24.5c5.37-5.86,12.81-10.69,20.69-13.78l-3.28-3.51c-10.28,3.55-20.37,9.27-28.48,16.45l11.06.85Z"/>
      <path class="cls-1" d="M101.82,12.31l8.31-3.83c-8.03-3.78-17.91-5.87-28.32-6.24l-1.78,4.04c8.24.5,15.9,2.53,21.79,6.03Z"/>
      <path class="cls-2" d="M82.46,22.34c2.67,2.26,7.12,3.88,10.62,2.15,3.39-1.67,1.87-4.58-.95-6.61-2.67-1.92-6.62-3.16-9.81-1.78-3.28,1.42-2.38,4.11.14,6.24Z"/>
      <path class="cls-2" d="M53.24,9.97c7.9-2.77,16.49-4.01,24.65-3.78l1.76-4c-.37,0-.74-.01-1.11-.01-9.53,0-19.36,1.45-28.53,4.36l3.22,3.44Z"/>
      <path class="cls-2" d="M23.05,48.64c-2.17-7.91.48-15.64,5.83-22.25l-11.46-.88C7.8,34.73,1.51,46.11,2.05,58.32l21-9.69Z"/>
      <path class="cls-2" d="M115.1,77.66c-19.38,15.92-41.1,22.26-59.95,22.26-10.29,0-19.73-1.89-27.47-5.14-10.91-4.59-19.02-11.87-23.56-20.83,2.64,10.62,10.42,19.17,22.5,24.45,21.86,9.56,60.09,7.56,92.41-19.42,8.46-7.06,12.24-16.12,13.79-24.24-3.17,8.07-9.15,15.89-17.72,22.93Z"/>
      <path class="cls-2" d="M112.99,76.78l-16.23-17.35c-11.07,7.14-24.19,10.94-36.57,10.94-2.79,0-5.53-.2-8.21-.59l-11.76,26.7c20.83,4.18,48.55-.23,72.77-19.7Z"/>
      <path class="cls-2" d="M103.83,13.59c6.31,4.42,10.14,10.61,10.76,17.36l17.47,1.34c-2.82-9.21-9.84-17.39-19.65-22.65l-8.58,3.96Z"/>
      <path class="cls-1" d="M133.28,38.24c-.14-1.32-.37-2.62-.67-3.91l-17.95-1.37c-.03,9.16-5.76,18.11-16.22,25.34l16.1,17.2c13.4-11.27,20.06-24.47,18.74-37.26Z"/>
      <path class="cls-3" d="M66.85,36.13c2.95.86,6.01.59,8.75-.79,2.68-1.35,4.02-3.24,3.94-5.4-.07-1.69-1.04-3.47-2.68-5.01-1.59-1.48-3.6-2.54-5.69-3.03-2.52-.59-5.09-.36-7.51.67-2.47,1.05-3.98,2.6-4.34,4.51-.3,1.62.26,3.46,1.65,5.18,1.44,1.79,3.53,3.19,5.89,3.88ZM64.73,23.72c3.7-1.6,7.6-.11,9.98,2.19,2.53,2.44,3.48,5.93-.52,7.91-4.15,2.05-8.53.05-10.82-2.68-2.16-2.57-2.46-5.77,1.36-7.43Z"/>
      <path class="cls-3" d="M80.42,23.28c1.69,1.48,3.91,2.62,6.24,3.17,2.91.69,5.71.44,8.02-.72,2.26-1.14,3.18-2.71,2.71-4.52-.37-1.42-1.59-2.9-3.42-4.18-1.76-1.24-3.86-2.12-5.92-2.52-2.49-.48-4.87-.27-6.96.62-2.13.91-3.25,2.22-3.21,3.83.03,1.36.92,2.89,2.55,4.32ZM82.32,16.1c3.19-1.38,7.14-.15,9.81,1.78,2.82,2.03,4.34,4.93.95,6.61-3.5,1.73-7.96.11-10.62-2.15-2.52-2.13-3.42-4.82-.14-6.24Z"/>
      <path class="cls-3" d="M41.38,36.17c.8.12,2.04-.31,2.76-.94l3.72-3.24,7.87,12.06c.35.54,1.53.53,2.63-.02,1.08-.55,1.65-1.41,1.29-1.93l-9.18-12.99c-.1-.14-.29-.23-.56-.26-.75-.09-1.89.28-2.55.84l-6.07,5.15c-.74.63-.7,1.23.09,1.35Z"/>
      <polygon points="73.9 53.07 72.1 54.03 71.26 52.45 73.21 51.41 72.94 50.9 70.37 52.26 72.9 57.02 73.52 56.69 72.37 54.54 74.17 53.58 73.9 53.07"/>
      <rect x="75.19" y="51.49" width=".7" height="3.87" transform="translate(-16.24 41.73) rotate(-28.01)"/>
      <path d="M74.5,50.55c-.12-.22-.36-.31-.59-.19-.23.12-.3.38-.18.6.11.21.36.3.58.18.25-.13.31-.38.19-.59Z"/>
      <path d="M77.63,50.02c-.57.3-.79.83-.79,1.24h-.01s-.33-.54-.33-.54l-.55.29c.17.27.33.56.52.91l1.33,2.49.62-.33-1.09-2.05c-.06-.11-.1-.22-.11-.31-.08-.4.09-.86.5-1.08.59-.31,1.03.04,1.33.59l1.05,1.97.62-.33-1.08-2.04c-.62-1.17-1.51-1.06-1.98-.81Z"/>
      <path d="M81.55,47.93c-.56.3-.79.83-.79,1.24h-.01s-.34-.54-.34-.54l-.55.29c.17.27.33.56.52.91l1.33,2.49.62-.33-1.09-2.05c-.06-.11-.1-.22-.11-.31-.08-.4.09-.86.5-1.08.59-.31,1.04.04,1.33.59l1.05,1.97.62-.33-1.08-2.04c-.62-1.17-1.51-1.06-1.98-.81Z"/>
      <path d="M86.93,49.03c-.62.33-1.34.27-1.8-.56l2.4-1.28c-.03-.07-.07-.17-.13-.3-.33-.63-1.15-1.45-2.27-.86-1,.53-1.17,1.67-.62,2.7.55,1.03,1.54,1.39,2.6.83.54-.29.86-.6,1.02-.82l-.34-.39c-.18.22-.41.44-.85.68ZM84.9,48.02c-.18-.46-.21-1.18.42-1.52.7-.37,1.19.15,1.4.55l-1.81.96Z"/>
      <path d="M90.11,43.48l-.66.35.39,2.37c.05.29.12.59.16.83h-.01c-.17-.17-.39-.39-.59-.57l-1.82-1.62-.68.36,2.94,2.48c.07.06.11.1.13.14.02.04.02.1.03.17.03.39-.06.75-.15.97-.1.25-.25.46-.38.59l.43.44c.14-.11.39-.38.55-.81.23-.59.21-1.35.03-2.76l-.36-2.93Z"/>
      <path class="cls-3" d="M134.39,33.17s0-.01,0-.02c-.01-.04-.02-.08-.04-.13-2.73-10.39-10.45-19.65-21.44-25.4C104.16,3.04,93.28.54,81.77.16c-.04-.02-.06-.06-.11-.07-.3-.13-.62-.09-.89.06-10.88-.25-22.26,1.38-32.9,4.96,0,0-.02,0-.03,0,0,0,0,0,0,0-11.32,3.82-22.48,10.25-31.17,18.38-.41.06-.73.36-.81.77C5.58,34.2-1.02,46.58.13,59.88c0,0,0,0,0,0,0,.02,0,.03,0,.05.21,2.38.65,4.69,1.27,6.94-.16.19-.26.43-.24.7.73,14.42,9.49,26.01,24.67,32.65,8.31,3.63,18.04,5.49,28.36,5.49,5.34,0,10.84-.5,16.38-1.5,17.83-3.23,35.04-11.42,49.75-23.71,20.89-17.44,14.57-46.42,14.51-46.71-.06-.26-.22-.48-.43-.62ZM2.21,60.45l21.46-9.9c2.84,7.63,9.54,13.63,19.01,16.97,2.33.82,4.77,1.45,7.27,1.91l-11.65,26.45c-.02.05-.02.11-.04.17-3.5-.81-6.79-1.86-9.81-3.12-15.21-6.39-24.73-18.21-26.25-32.48ZM47.91,7.21l3.28,3.51c-7.88,3.09-15.33,7.93-20.69,13.78l-11.06-.85c8.1-7.18,18.2-12.89,28.48-16.45ZM53.29,12.07c7.26-2.64,15.16-3.94,22.73-3.94,9.58,0,18.64,2.08,25.23,6.15,0,0,0,0,0,0,0,0,0,0,0,0,7.14,4.42,11.31,11.08,11.42,18.28.14,8.88-5.65,17.67-16.3,24.74-16.15,10.72-36.97,13.99-53.03,8.34-9.31-3.28-15.75-9.23-18.15-16.75-4.93-15.49,10.79-30.53,28.09-36.82ZM110.13,8.48l-8.31,3.83c-5.89-3.5-13.55-5.53-21.79-6.03l1.78-4.04c10.41.36,20.29,2.45,28.32,6.24ZM51.98,69.77c2.68.39,5.42.59,8.21.59,12.38,0,25.5-3.8,36.57-10.94l16.23,17.35c-24.22,19.47-51.94,23.88-72.77,19.7l11.76-26.7ZM114.54,75.5l-16.1-17.2c10.45-7.24,16.19-16.18,16.22-25.34l17.95,1.37c.3,1.29.54,2.59.67,3.91,1.32,12.79-5.34,25.99-18.74,37.26ZM132.06,32.28l-17.47-1.34c-.62-6.75-4.45-12.94-10.76-17.36l8.58-3.96c9.81,5.26,16.83,13.44,19.65,22.65ZM78.54,2.18c.37,0,.74,0,1.11.01l-1.76,4c-8.16-.23-16.75,1.01-24.65,3.78l-3.22-3.44c9.16-2.9,19-4.36,28.53-4.36ZM17.43,25.51l11.46.88c-5.35,6.61-8,14.34-5.83,22.25L2.05,58.32c-.53-12.21,5.75-23.6,15.38-32.81ZM119.03,78.97c-32.31,26.98-70.55,28.98-92.41,19.42-12.08-5.28-19.86-13.83-22.5-24.45,4.54,8.96,12.65,16.24,23.56,20.83,7.74,3.25,17.18,5.15,27.47,5.14,18.85,0,40.56-6.34,59.95-22.26,8.57-7.04,14.55-14.86,17.72-22.93-1.55,8.12-5.33,17.18-13.79,24.24Z"/>
    </g>
  </g>
</svg>