<?xml version="1.0" encoding="UTF-8"?>
<svg id="Layer_2" xmlns="http://www.w3.org/2000/svg" viewBox="0 0 135.77 105.71">
  <defs>
    <style>
      .cls-1 {
        fill: #df1c4d;
      }

      .cls-2 {
        fill: #64bf7d;
      }

      .cls-3 {
        fill: #010101;
      }
    </style>
  </defs>
  <g id="Layer_1-2" data-name="Layer_1">
    <g>
      <path class="cls-1" d="M25.19,48.88c2.4,7.53,8.84,13.48,18.15,16.75,16.06,5.65,36.88,2.38,53.03-8.33,10.66-7.07,16.45-15.85,16.3-24.74-.12-7.2-4.28-13.87-11.42-18.28-11.79-7.29-31.51-8.2-47.97-2.21-17.3,6.29-33.03,21.33-28.09,36.82ZM73.52,56.69l-.61.33-2.53-4.76,2.56-1.36.27.51-1.95,1.04.84,1.58,1.8-.96.27.51-1.8.96,1.15,2.15ZM73.73,50.96c-.12-.22-.04-.48.18-.6.23-.12.47-.03.59.19.12.21.05.46-.19.59-.22.12-.46.03-.58-.18ZM76.14,55.3l-1.82-3.42.62-.33,1.82,3.42-.62.33ZM80.08,53.2l-1.05-1.97c-.29-.55-.74-.9-1.33-.59-.41.22-.57.68-.5,1.08.01.09.06.21.11.31l1.09,2.05-.62.33-1.33-2.49c-.19-.35-.35-.64-.52-.91l.55-.29.34.55h.01c0-.42.22-.95.79-1.25.47-.25,1.36-.36,1.98.81l1.08,2.04-.62.33ZM84,51.12l-1.05-1.97c-.29-.55-.74-.9-1.33-.59-.41.22-.57.68-.5,1.08.01.09.06.21.11.31l1.09,2.05-.62.33-1.33-2.49c-.19-.35-.35-.64-.52-.91l.55-.29.34.55h.01c0-.42.22-.95.79-1.25.47-.25,1.36-.36,1.98.81l1.08,2.04-.62.33ZM87.1,49.56c-1.05.56-2.05.2-2.6-.83-.55-1.03-.37-2.17.62-2.7,1.12-.59,1.93.23,2.27.86.07.13.11.23.13.3l-2.4,1.28c.46.83,1.18.89,1.8.56.44-.24.67-.46.85-.68l.34.39c-.17.22-.48.53-1.02.82ZM90.44,49.18c-.16.43-.41.7-.55.81l-.43-.44c.13-.13.28-.34.38-.59.1-.22.18-.58.15-.97,0-.08-.01-.14-.03-.17-.02-.04-.06-.08-.13-.14l-2.94-2.48.68-.36,1.82,1.62c.2.18.42.41.59.58h.01c-.04-.25-.11-.54-.16-.84l-.39-2.37.66-.35.36,2.93c.18,1.41.19,2.17-.03,2.76ZM63.62,24.79c.59-2.5,2.73-4.59,6.17-6.1,3.37-1.47,6.9-1.91,10.31-1.28,2.83.53,5.52,1.8,7.62,3.64,2.17,1.91,3.4,4.17,3.4,6.38,0,2.82-1.94,5.35-5.67,7.25-3.82,1.94-8.02,2.47-12.01,1.5-3.18-.77-5.97-2.48-7.84-4.74-1.8-2.17-2.47-4.53-1.97-6.66ZM38.6,34.8l12.57-6.83c.94-.51,2.05-.56,2.49-.11.44.45.05,1.24-.88,1.76l-10.75,6.04,2.72,5.56c3.37-3.15,8.05-5.28,12.06-5.61,5.4-.41,8.31,2.6,6.65,6.96-1.77,4.63-8.13,9.35-14.43,10.33-1.15.18-1.74-.45-1.3-1.4.43-.93,1.69-1.81,2.8-1.97,4.03-.57,8.21-3.57,9.44-6.61,1.17-2.89-.74-4.89-4.34-4.57-.01,0-.03,0-.04,0-3.77.35-8.12,3.08-9.69,6.22-.44.88-1.73,1.71-2.88,1.85-.68.08-1.19-.09-1.36-.47l-4.36-9.27c-.25-.54.31-1.35,1.33-1.9Z"/>
      <path class="cls-2" d="M101.82,12.31l8.28-3.82c-8.03-3.78-17.88-5.89-28.29-6.25l-1.78,4.04c8.24.5,15.9,2.53,21.79,6.03Z"/>
      <path class="cls-1" d="M83.59,32.79c5.59-2.79,4.46-7.28,1.14-10.33-3.13-2.87-8.38-4.61-13.53-2.33-5.31,2.36-5.07,6.51-2.26,9.74,2.99,3.44,8.86,5.81,14.65,2.91Z"/>
      <path class="cls-1" d="M85.32,46.5c-.63.33-.6,1.06-.42,1.52l1.81-.96c-.2-.4-.7-.92-1.4-.55Z"/>
      <path class="cls-2" d="M28.46,92.93c2.88,1.21,6.01,2.22,9.33,3.01,0-.02,0-.04.01-.05l11.68-26.53c-2.34-.45-4.61-1.06-6.8-1.83-9.48-3.33-16.17-9.34-19.01-16.97L2.21,60.45c1.52,14.27,11.04,26.08,26.25,32.48Z"/>
      <path class="cls-2" d="M30.5,24.5c5.37-5.86,12.81-10.69,20.69-13.78l-3.28-3.51c-10.28,3.55-20.37,9.27-28.47,16.45l11.06.85Z"/>
      <path class="cls-1" d="M53.24,9.97c7.9-2.78,16.49-4.01,24.65-3.78l1.76-3.99c-9.87-.12-20.11,1.31-29.62,4.33l3.22,3.44Z"/>
      <path class="cls-1" d="M115.1,77.65c-19.38,15.92-41.1,22.26-59.95,22.26-10.29,0-19.73-1.89-27.47-5.14-10.91-4.59-19.02-11.87-23.56-20.83,2.64,10.62,10.42,19.17,22.5,24.45,21.85,9.56,60.09,7.56,92.41-19.42,8.44-7.04,12.21-16.08,13.77-24.19-3.17,8.05-9.15,15.86-17.7,22.88Z"/>
      <path class="cls-1" d="M112.99,76.77l-16.23-17.35c-11.07,7.14-24.19,10.94-36.57,10.94-2.95,0-5.86-.22-8.69-.66,0,.02,0,.04-.01.06l-11.72,26.62c20.88,4.33,48.83,0,73.23-19.61Z"/>
      <path class="cls-1" d="M103.83,13.58c6.31,4.42,10.14,10.61,10.76,17.36l17.47,1.34c-2.82-9.21-9.84-17.39-19.65-22.65l-8.58,3.96Z"/>
      <path class="cls-1" d="M23.05,48.64c-2.17-7.91.48-15.64,5.83-22.25l-11.46-.88C7.8,34.73,1.51,46.11,2.05,58.32l21-9.69Z"/>
      <path class="cls-2" d="M133.28,38.24c-.14-1.32-.37-2.62-.67-3.91l-17.95-1.37c-.03,9.16-5.76,18.11-16.22,25.34l16.1,17.2c13.4-11.27,20.06-24.47,18.74-37.26Z"/>
      <path class="cls-3" d="M73.44,36.18c3.99.97,8.19.44,12.01-1.5,3.73-1.9,5.67-4.43,5.67-7.25,0-2.2-1.23-4.47-3.4-6.38-2.09-1.84-4.79-3.12-7.62-3.64-3.41-.63-6.94-.2-10.31,1.28-3.44,1.5-5.58,3.59-6.17,6.1-.5,2.12.18,4.49,1.97,6.66,1.87,2.26,4.66,3.96,7.84,4.74ZM71.2,20.13c5.15-2.29,10.39-.55,13.53,2.33,3.32,3.05,4.45,7.54-1.14,10.33-5.79,2.89-11.66.52-14.65-2.91-2.81-3.23-3.05-7.38,2.26-9.74Z"/>
      <polygon points="73.9 53.07 72.1 54.03 71.26 52.45 73.21 51.41 72.94 50.9 70.37 52.26 72.9 57.02 73.52 56.69 72.37 54.54 74.17 53.58 73.9 53.07"/>
      <path d="M74.5,50.55c-.12-.22-.36-.31-.59-.19-.23.12-.3.38-.18.6.11.21.36.3.58.18.25-.13.31-.38.19-.59Z"/>
      <rect x="75.19" y="51.49" width=".7" height="3.87" transform="translate(-16.24 41.73) rotate(-28.01)"/>
      <path d="M77.63,50.02c-.56.3-.79.83-.79,1.24h-.01s-.34-.54-.34-.54l-.55.29c.17.27.33.56.52.91l1.33,2.49.62-.33-1.09-2.05c-.06-.11-.1-.22-.11-.31-.08-.4.09-.86.5-1.08.59-.31,1.03.04,1.33.59l1.05,1.97.62-.33-1.08-2.04c-.62-1.17-1.51-1.06-1.98-.81Z"/>
      <path d="M81.55,47.93c-.56.3-.79.83-.79,1.24h-.01s-.34-.54-.34-.54l-.55.29c.17.27.33.56.52.91l1.33,2.49.62-.33-1.09-2.05c-.06-.11-.1-.22-.11-.31-.08-.4.09-.86.5-1.08.59-.31,1.03.04,1.33.59l1.05,1.97.62-.33-1.08-2.04c-.62-1.17-1.51-1.06-1.98-.81Z"/>
      <path d="M86.93,49.03c-.62.33-1.34.27-1.8-.56l2.4-1.28c-.03-.07-.07-.17-.13-.3-.33-.63-1.15-1.45-2.27-.86-1,.53-1.17,1.67-.62,2.7.55,1.03,1.54,1.39,2.6.83.54-.29.86-.6,1.02-.82l-.34-.39c-.18.22-.41.44-.85.68ZM84.9,48.02c-.18-.46-.21-1.18.42-1.52.7-.37,1.19.15,1.4.55l-1.81.96Z"/>
      <path d="M90.11,43.48l-.66.35.39,2.37c.05.29.12.59.16.83h-.01c-.17-.17-.39-.39-.59-.57l-1.82-1.62-.68.36,2.94,2.48c.07.06.11.1.13.14.02.04.02.1.03.17.03.39-.06.75-.15.97-.1.25-.25.46-.38.59l.43.44c.14-.11.39-.38.55-.81.23-.59.21-1.35.03-2.76l-.36-2.93Z"/>
      <path class="cls-3" d="M134.39,33.17s0-.02,0-.02c-.01-.04-.02-.08-.04-.12-2.73-10.39-10.45-19.65-21.44-25.4C104.16,3.04,93.27.54,81.77.15c-.04-.02-.06-.06-.11-.07-.3-.13-.62-.09-.88.06-10.88-.25-22.26,1.38-32.91,4.96,0,0-.02,0-.02,0,0,0,0,0,0,0-11.32,3.82-22.48,10.25-31.16,18.38-.41.06-.73.36-.81.77C5.58,34.2-1.01,46.58.13,59.88c0,0,0,0,0,0,0,.02,0,.03,0,.05.21,2.38.65,4.69,1.27,6.94-.16.19-.26.43-.24.7.73,14.42,9.49,26.01,24.67,32.65,8.31,3.63,18.04,5.49,28.36,5.49,5.34,0,10.84-.5,16.38-1.5,17.83-3.23,35.04-11.42,49.75-23.71,20.89-17.44,14.57-46.42,14.51-46.71-.06-.27-.22-.48-.43-.62ZM2.21,60.45l21.46-9.9c2.84,7.63,9.54,13.63,19.01,16.97,2.19.77,4.47,1.37,6.8,1.83l-11.68,26.53s0,.04-.01.05c-3.32-.79-6.45-1.8-9.33-3.01-15.21-6.39-24.73-18.21-26.25-32.48ZM47.91,7.21l3.28,3.51c-7.88,3.09-15.33,7.93-20.69,13.78l-11.06-.85c8.1-7.18,18.2-12.89,28.47-16.45ZM53.29,12.06c16.46-5.98,36.18-5.07,47.97,2.21,7.15,4.42,11.31,11.08,11.42,18.28.14,8.88-5.65,17.67-16.3,24.74-16.15,10.72-36.97,13.99-53.03,8.33-9.31-3.28-15.75-9.22-18.15-16.75-4.93-15.49,10.79-30.53,28.09-36.82ZM110.1,8.49l-8.28,3.82c-5.89-3.5-13.55-5.53-21.79-6.03l1.78-4.04c10.4.36,20.26,2.48,28.29,6.25ZM51.49,69.76s0-.04.01-.06c2.83.44,5.74.66,8.69.66,12.38,0,25.5-3.8,36.57-10.94l16.23,17.35c-24.4,19.62-52.35,23.94-73.23,19.61l11.72-26.62ZM114.54,75.5l-16.1-17.2c10.45-7.24,16.19-16.18,16.22-25.34l17.95,1.37c.3,1.29.54,2.59.67,3.91,1.32,12.79-5.34,25.99-18.74,37.26ZM132.06,32.28l-17.47-1.34c-.62-6.75-4.45-12.94-10.76-17.36l8.58-3.96c9.81,5.26,16.83,13.44,19.65,22.65ZM79.64,2.2l-1.76,3.99c-8.16-.23-16.75,1.01-24.65,3.78l-3.22-3.44c9.52-3.02,19.75-4.44,29.62-4.33ZM17.42,25.51l11.46.88c-5.35,6.61-8,14.34-5.83,22.25L2.05,58.32c-.53-12.21,5.75-23.6,15.38-32.81ZM119.03,78.97c-32.31,26.98-70.55,28.98-92.41,19.42-12.08-5.28-19.86-13.83-22.5-24.45,4.54,8.96,12.65,16.24,23.56,20.83,7.74,3.25,17.18,5.15,27.47,5.14,18.85,0,40.56-6.34,59.95-22.26,8.55-7.02,14.53-14.83,17.7-22.88-1.56,8.11-5.33,17.15-13.77,24.19Z"/>
      <path class="cls-3" d="M41.64,45.96c.18.38.69.55,1.36.47,1.16-.14,2.45-.97,2.88-1.85,1.57-3.14,5.93-5.87,9.69-6.22.01,0,.03,0,.04,0,3.6-.32,5.52,1.68,4.34,4.57-1.23,3.04-5.41,6.04-9.44,6.61-1.12.16-2.37,1.03-2.8,1.97-.43.95.15,1.57,1.3,1.4,6.3-.97,12.65-5.7,14.43-10.33,1.67-4.36-1.24-7.37-6.65-6.96-4,.33-8.69,2.46-12.06,5.61l-2.72-5.56,10.75-6.04c.93-.52,1.32-1.31.88-1.76-.44-.45-1.55-.41-2.49.11l-12.57,6.83c-1.01.55-1.58,1.36-1.33,1.9l4.36,9.27Z"/>
    </g>
  </g>
</svg>